# xmcd CD database file
#
# Track frame offsets:
#	150
#	29074
#	51159
#	72474
#	101829
#	122466
#	136199
#	158250
#	179047
#	196810
#	211395
#	237347
#
# Disc length: 3364 seconds
#
# Revision: 1
# Processed by: cddbd v1.5.1PL0 Copyright (c) Steve Scherf et al.
# Submitted via: jetAudio 5
#
DISCID=ab0d220c
DTITLE=Bad Love - Luther Allison
DYEAR=1900
DGENRE=
TTITLE0=Bad Love
TTITLE1=I Wanna Know
TTITLE2=She Was Born That Way
TTITLE3=Put Your Money Where Your ...
TTITLE4=Nobody But You
TTITLE5=You've Been Teasin' Me
TTITLE6=Middle Of The Road
TTITLE7=Love String
TTITLE8=Gave It All
TTITLE9=Soul Fixin' Man
TTITLE10=Freedom
TTITLE11=Things That I Used To Do
EXTD=
EXTT0=
EXTT1=
EXTT2=
EXTT3=
EXTT4=
EXTT5=
EXTT6=
EXTT7=
EXTT8=
EXTT9=
EXTT10=
EXTT11=
PLAYORDER=
